<svg width="24" height="24" viewBox="0 0 24 24" fill="none" xmlns="http://www.w3.org/2000/svg">
<mask id="mask0_22482_4734" style="mask-type:alpha" maskUnits="userSpaceOnUse" x="-1" y="0" width="25" height="24">
<rect x="-0.000488281" width="24" height="24" fill="#D9D9D9"/>
</mask>
<g mask="url(#mask0_22482_4734)">
<path d="M11.2995 14.3L8.69949 11.7C8.38282 11.3833 8.31199 11.0208 8.48699 10.6125C8.66199 10.2042 8.97449 10 9.42449 10H14.5745C15.0245 10 15.337 10.2042 15.512 10.6125C15.687 11.0208 15.6162 11.3833 15.2995 11.7L12.6995 14.3C12.5995 14.4 12.4912 14.475 12.3745 14.525C12.2578 14.575 12.1328 14.6 11.9995 14.6C11.8662 14.6 11.7412 14.575 11.6245 14.525C11.5078 14.475 11.3995 14.4 11.2995 14.3Z" fill="#4589FF"/>
</g>
</svg>
