<svg width="24" height="24" viewBox="0 0 24 24" fill="none" xmlns="http://www.w3.org/2000/svg">
<mask id="mask0_22878_7773" style="mask-type:alpha" maskUnits="userSpaceOnUse" x="-1" y="0" width="25" height="24">
<rect x="-0.000488281" width="24" height="24" fill="#D9D9D9"/>
</mask>
<g mask="url(#mask0_22878_7773)">
<path d="M12.6995 10.3001L15.2995 12.9001C15.6161 13.2168 15.687 13.5793 15.512 13.9876C15.337 14.3959 15.0245 14.6001 14.5745 14.6001H9.42448C8.97448 14.6001 8.66198 14.3959 8.48698 13.9876C8.31198 13.5793 8.38281 13.2168 8.69948 12.9001L11.2995 10.3001C11.3995 10.2001 11.5078 10.1251 11.6245 10.0751C11.7411 10.0251 11.8661 10.0001 11.9995 10.0001C12.1328 10.0001 12.2578 10.0251 12.3745 10.0751C12.4911 10.1251 12.5995 10.2001 12.6995 10.3001Z" fill="#4589FF"/>
</g>
</svg>
