<svg width="17" height="12" viewBox="0 0 17 12" fill="none" xmlns="http://www.w3.org/2000/svg">
<path d="M6.23213 9.54673L14.7071 1.07173C14.9071 0.871729 15.1446 0.771729 15.4196 0.771729C15.6946 0.771729 15.9321 0.871729 16.1321 1.07173C16.3321 1.27173 16.4321 1.50923 16.4321 1.78423C16.4321 2.05923 16.3321 2.29673 16.1321 2.49673L6.93213 11.6967C6.73213 11.8967 6.4988 11.9967 6.23213 11.9967C5.96546 11.9967 5.73213 11.8967 5.53213 11.6967L1.23213 7.39673C1.03213 7.19673 0.936297 6.95923 0.94463 6.68423C0.952963 6.40923 1.05713 6.17173 1.25713 5.97173C1.45713 5.77173 1.69463 5.67173 1.96963 5.67173C2.24463 5.67173 2.48213 5.77173 2.68213 5.97173L6.23213 9.54673Z" fill="white"/>
</svg>
