<svg width="14" height="14" viewBox="0 0 14 14" fill="none" xmlns="http://www.w3.org/2000/svg">
<path d="M6.9995 8.40005L2.0995 13.3C1.91617 13.4834 1.68283 13.575 1.3995 13.575C1.11617 13.575 0.882833 13.4834 0.6995 13.3C0.516166 13.1167 0.4245 12.8834 0.4245 12.6C0.4245 12.3167 0.516166 12.0834 0.6995 11.9L5.5995 7.00005L0.6995 2.10005C0.516166 1.91672 0.4245 1.68338 0.4245 1.40005C0.4245 1.11672 0.516166 0.883382 0.6995 0.700049C0.882833 0.516715 1.11617 0.425049 1.3995 0.425049C1.68283 0.425049 1.91617 0.516715 2.0995 0.700049L6.9995 5.60005L11.8995 0.700049C12.0828 0.516715 12.3162 0.425049 12.5995 0.425049C12.8828 0.425049 13.1162 0.516715 13.2995 0.700049C13.4828 0.883382 13.5745 1.11672 13.5745 1.40005C13.5745 1.68338 13.4828 1.91672 13.2995 2.10005L8.3995 7.00005L13.2995 11.9C13.4828 12.0834 13.5745 12.3167 13.5745 12.6C13.5745 12.8834 13.4828 13.1167 13.2995 13.3C13.1162 13.4834 12.8828 13.575 12.5995 13.575C12.3162 13.575 12.0828 13.4834 11.8995 13.3L6.9995 8.40005Z" fill="#4589FF"/>
</svg>
