<svg width="18" height="18" viewBox="0 0 18 18" fill="none" xmlns="http://www.w3.org/2000/svg">
<path d="M9 10.8642L2.46667 17.389C2.22223 17.6331 1.91112 17.7552 1.53334 17.7552C1.15556 17.7552 0.844449 17.6331 0.600004 17.389C0.35556 17.1449 0.233337 16.8342 0.233337 16.4569C0.233337 16.0796 0.35556 15.7689 0.600004 15.5248L7.13334 9.00002L0.600004 2.47527C0.35556 2.23115 0.233337 1.92045 0.233337 1.54316C0.233337 1.16588 0.35556 0.855181 0.600004 0.611058C0.844449 0.366935 1.15556 0.244873 1.53334 0.244873C1.91112 0.244873 2.22223 0.366935 2.46667 0.611058L9 7.13581L15.5333 0.611058C15.7778 0.366935 16.0889 0.244873 16.4667 0.244873C16.8444 0.244873 17.1556 0.366935 17.4 0.611058C17.6444 0.855181 17.7667 1.16588 17.7667 1.54316C17.7667 1.92045 17.6444 2.23115 17.4 2.47527L10.8667 9.00002L17.4 15.5248C17.6444 15.7689 17.7667 16.0796 17.7667 16.4569C17.7667 16.8342 17.6444 17.1449 17.4 17.389C17.1556 17.6331 16.8444 17.7552 16.4667 17.7552C16.0889 17.7552 15.7778 17.6331 15.5333 17.389L9 10.8642Z" fill="white"/>
</svg>
