<svg width="20" height="21" viewBox="0 0 20 21" fill="none" xmlns="http://www.w3.org/2000/svg">
<path d="M9.95 16.4658C10.3 16.4658 10.5958 16.345 10.8375 16.1033C11.0792 15.8617 11.2 15.5658 11.2 15.2158C11.2 14.8658 11.0792 14.57 10.8375 14.3283C10.5958 14.0867 10.3 13.9658 9.95 13.9658C9.6 13.9658 9.30417 14.0867 9.0625 14.3283C8.82083 14.57 8.7 14.8658 8.7 15.2158C8.7 15.5658 8.82083 15.8617 9.0625 16.1033C9.30417 16.345 9.6 16.4658 9.95 16.4658ZM10 20.4658C8.61667 20.4658 7.31667 20.2033 6.1 19.6783C4.88333 19.1533 3.825 18.4408 2.925 17.5408C2.025 16.6408 1.3125 15.5825 0.7875 14.3658C0.2625 13.1492 0 11.8492 0 10.4658C0 9.08249 0.2625 7.78249 0.7875 6.56582C1.3125 5.34915 2.025 4.29082 2.925 3.39082C3.825 2.49082 4.88333 1.77832 6.1 1.25332C7.31667 0.72832 8.61667 0.46582 10 0.46582C11.3833 0.46582 12.6833 0.72832 13.9 1.25332C15.1167 1.77832 16.175 2.49082 17.075 3.39082C17.975 4.29082 18.6875 5.34915 19.2125 6.56582C19.7375 7.78249 20 9.08249 20 10.4658C20 11.8492 19.7375 13.1492 19.2125 14.3658C18.6875 15.5825 17.975 16.6408 17.075 17.5408C16.175 18.4408 15.1167 19.1533 13.9 19.6783C12.6833 20.2033 11.3833 20.4658 10 20.4658ZM10 18.4658C12.2333 18.4658 14.125 17.6908 15.675 16.1408C17.225 14.5908 18 12.6992 18 10.4658C18 8.23249 17.225 6.34082 15.675 4.79082C14.125 3.24082 12.2333 2.46582 10 2.46582C7.76667 2.46582 5.875 3.24082 4.325 4.79082C2.775 6.34082 2 8.23249 2 10.4658C2 12.6992 2.775 14.5908 4.325 16.1408C5.875 17.6908 7.76667 18.4658 10 18.4658ZM10.1 6.16582C10.5167 6.16582 10.8792 6.29915 11.1875 6.56582C11.4958 6.83249 11.65 7.16582 11.65 7.56582C11.65 7.93249 11.5375 8.25749 11.3125 8.54082C11.0875 8.82415 10.8333 9.09082 10.55 9.34082C10.1667 9.67415 9.82917 10.0408 9.5375 10.4408C9.24583 10.8408 9.1 11.2908 9.1 11.7908C9.1 12.0242 9.1875 12.22 9.3625 12.3783C9.5375 12.5367 9.74167 12.6158 9.975 12.6158C10.225 12.6158 10.4375 12.5325 10.6125 12.3658C10.7875 12.1992 10.9 11.9908 10.95 11.7408C11.0167 11.3908 11.1667 11.0783 11.4 10.8033C11.6333 10.5283 11.8833 10.2658 12.15 10.0158C12.5333 9.64915 12.8625 9.24915 13.1375 8.81582C13.4125 8.38249 13.55 7.89915 13.55 7.36582C13.55 6.51582 13.2042 5.81999 12.5125 5.27832C11.8208 4.73665 11.0167 4.46582 10.1 4.46582C9.46667 4.46582 8.8625 4.59915 8.2875 4.86582C7.7125 5.13249 7.275 5.54082 6.975 6.09082C6.85833 6.29082 6.82083 6.50332 6.8625 6.72832C6.90417 6.95332 7.01667 7.12415 7.2 7.24082C7.43333 7.37415 7.675 7.41582 7.925 7.36582C8.175 7.31582 8.38333 7.17415 8.55 6.94082C8.73333 6.69082 8.9625 6.49915 9.2375 6.36582C9.5125 6.23249 9.8 6.16582 10.1 6.16582Z" fill="white"/>
</svg>
