<svg width="22" height="24" viewBox="0 0 22 24" fill="none" xmlns="http://www.w3.org/2000/svg">
<path d="M11 19.1999C9.87995 19.1999 8.80995 19.3749 7.78995 19.7249C6.76995 20.0749 5.83995 20.5999 4.99995 21.2999V21.5999H17V21.2999C16.16 20.5999 15.23 20.0749 14.21 19.7249C13.19 19.3749 12.12 19.1999 11 19.1999ZM2.59995 20.2199C3.67995 19.1599 4.93495 18.3249 6.36495 17.7149C7.79495 17.1049 9.33995 16.7999 11 16.7999C12.66 16.7999 14.205 17.1049 15.635 17.7149C17.065 18.3249 18.32 19.1599 19.4 20.2199V4.79988H2.59995V20.2199ZM11 14.3999C9.83995 14.3999 8.84995 13.9899 8.02995 13.1699C7.20995 12.3499 6.79995 11.3599 6.79995 10.1999C6.79995 9.03988 7.20995 8.04988 8.02995 7.22988C8.84995 6.40988 9.83995 5.99988 11 5.99988C12.16 5.99988 13.15 6.40988 13.97 7.22988C14.79 8.04988 15.2 9.03988 15.2 10.1999C15.2 11.3599 14.79 12.3499 13.97 13.1699C13.15 13.9899 12.16 14.3999 11 14.3999ZM11 11.9999C11.5 11.9999 11.925 11.8249 12.275 11.4749C12.625 11.1249 12.8 10.6999 12.8 10.1999C12.8 9.69988 12.625 9.27488 12.275 8.92488C11.925 8.57488 11.5 8.39988 11 8.39988C10.5 8.39988 10.075 8.57488 9.72495 8.92488C9.37495 9.27488 9.19995 9.69988 9.19995 10.1999C9.19995 10.6999 9.37495 11.1249 9.72495 11.4749C10.075 11.8249 10.5 11.9999 11 11.9999ZM2.59995 23.9999C1.93995 23.9999 1.37495 23.7649 0.904951 23.2949C0.434951 22.8249 0.199951 22.2599 0.199951 21.5999V4.79988C0.199951 4.13988 0.434951 3.57488 0.904951 3.10488C1.37495 2.63488 1.93995 2.39988 2.59995 2.39988H3.79995V1.19988C3.79995 0.537136 4.33721 -0.00012207 4.99995 -0.00012207C5.66269 -0.00012207 6.19995 0.537136 6.19995 1.19988V2.39988H15.8V1.19988C15.8 0.537136 16.3372 -0.00012207 17 -0.00012207C17.6627 -0.00012207 18.2 0.537136 18.2 1.19988V2.39988H19.4C20.06 2.39988 20.625 2.63488 21.095 3.10488C21.565 3.57488 21.8 4.13988 21.8 4.79988V21.5999C21.8 22.2599 21.565 22.8249 21.095 23.2949C20.625 23.7649 20.06 23.9999 19.4 23.9999H2.59995Z" fill="#42526E"/>
</svg>
