<svg width="22" height="22" viewBox="0 0 22 22" fill="none" xmlns="http://www.w3.org/2000/svg">
<path d="M20 0H2C0.895431 0 0 0.89648 0 2.00105C0 2.02939 0 2.04928 0 2.05917V20.0592C0 21.1311 0.869976 22 1.94187 22C1.97009 22 1.98998 22 1.99999 22H20C20.01 22 20.0299 22 20.0581 22C21.13 22 22 21.1311 22 20.0592V2.05915C22 2.04925 22 2.02937 22 2.00104C22 0.896477 21.1046 0 20 0ZM13 20.0592H2V12.0591H13V20.0592ZM13 10.0591H2V2.05917L13 2.05915V10.0591ZM20 20.0592H15V2.05917H20V20.0592Z" fill="#42526E"/>
</svg>
