<svg width="24" height="22" viewBox="0 0 24 22" fill="none" xmlns="http://www.w3.org/2000/svg">
<path d="M18.4615 2.6922L18.4615 19.3076C18.461 19.7971 18.2664 20.2664 17.9203 20.6125C17.5742 20.9586 17.1049 21.1532 16.6154 21.1537L12.9231 21.1537C12.4336 21.1532 11.9643 20.9586 11.6182 20.6125C11.2721 20.2664 11.0774 19.7971 11.0769 19.3076L11.0769 2.6922C11.0774 2.20271 11.2721 1.73342 11.6182 1.38731C11.9643 1.04119 12.4336 0.84653 12.9231 0.84604L16.6154 0.84604C17.1049 0.84653 17.5742 1.04119 17.9203 1.38731C18.2664 1.73342 18.461 2.20271 18.4615 2.6922ZM12.9231 19.3076L16.6154 19.3076L16.6154 2.6922L12.9231 2.6922L12.9231 19.3076ZM12.9231 2.6922L12.9231 19.3076C12.9226 19.7971 12.7279 20.2663 12.3818 20.6124C12.0357 20.9586 11.5664 21.1532 11.0769 21.1537L7.38462 21.1537C6.89513 21.1532 6.42584 20.9586 6.07973 20.6124C5.73361 20.2663 5.53895 19.797 5.53846 19.3076L5.53846 2.69218C5.53895 2.2027 5.73361 1.7334 6.07973 1.38729C6.42584 1.04117 6.89513 0.846512 7.38461 0.846023L11.0769 0.846023C11.5664 0.846511 12.0357 1.04117 12.3818 1.38729C12.7279 1.7334 12.9226 2.20271 12.9231 2.6922ZM7.38462 19.3076L11.0769 19.3076L11.0769 2.6922L7.38461 2.69218L7.38462 19.3076ZM7.38461 2.69218L7.38462 19.3076C7.38413 19.797 7.18946 20.2663 6.84335 20.6124C6.49723 20.9586 6.02794 21.1532 5.53846 21.1537L1.84615 21.1537C1.35667 21.1532 0.887381 20.9586 0.541266 20.6124C0.195151 20.2663 0.000488688 19.797 -8.07075e-08 19.3076L-8.06989e-07 2.69218C0.000487919 2.2027 0.19515 1.7334 0.541265 1.38729C0.88738 1.04117 1.35667 0.846512 1.84615 0.846023L5.53846 0.846023C6.02794 0.846512 6.49723 1.04117 6.84335 1.38729C7.18946 1.7334 7.38413 2.2027 7.38461 2.69218ZM1.84615 19.3076L5.53846 19.3076L5.53846 2.69218L1.84615 2.69218L1.84615 19.3076Z" fill="#42526E"/>
<path d="M24 2.6924L24 19.3078C23.9995 19.7973 23.8048 20.2665 23.4587 20.6127C23.1126 20.9588 22.6433 21.1534 22.1538 21.1539L18.4615 21.1539C17.9721 21.1534 17.5028 20.9588 17.1567 20.6127C16.8105 20.2665 16.6159 19.7971 16.6154 19.3076L16.6154 2.6922C16.6159 2.20271 16.8105 1.73363 17.1567 1.38751C17.5028 1.0414 17.9721 0.846736 18.4615 0.846246L22.1538 0.846246C22.6433 0.846736 23.1126 1.0414 23.4587 1.38751C23.8048 1.73363 23.9995 2.20292 24 2.6924ZM18.4615 19.3076L22.1538 19.3078L22.1538 2.6924L18.4615 2.6922L18.4615 19.3076Z" fill="#42526E"/>
</svg>
