<svg width="18" height="20" viewBox="0 0 18 20" fill="none" xmlns="http://www.w3.org/2000/svg">
<path d="M11.4995 16C10.7995 16 10.2078 15.7583 9.72451 15.275C9.24118 14.7917 8.99951 14.2 8.99951 13.5C8.99951 12.8 9.24118 12.2083 9.72451 11.725C10.2078 11.2417 10.7995 11 11.4995 11C12.1995 11 12.7912 11.2417 13.2745 11.725C13.7578 12.2083 13.9995 12.8 13.9995 13.5C13.9995 14.2 13.7578 14.7917 13.2745 15.275C12.7912 15.7583 12.1995 16 11.4995 16ZM1.99951 20C1.44951 20 0.978678 19.8042 0.587012 19.4125C0.195345 19.0208 -0.000488281 18.55 -0.000488281 18V4C-0.000488281 3.45 0.195345 2.97917 0.587012 2.5875C0.978678 2.19583 1.44951 2 1.99951 2H2.99951V1C2.99951 0.716667 3.09535 0.479167 3.28701 0.2875C3.47868 0.0958333 3.71618 0 3.99951 0C4.28285 0 4.52035 0.0958333 4.71201 0.2875C4.90368 0.479167 4.99951 0.716667 4.99951 1V2H12.9995V1C12.9995 0.716667 13.0953 0.479167 13.287 0.2875C13.4787 0.0958333 13.7162 0 13.9995 0C14.2828 0 14.5203 0.0958333 14.712 0.2875C14.9037 0.479167 14.9995 0.716667 14.9995 1V2H15.9995C16.5495 2 17.0203 2.19583 17.412 2.5875C17.8037 2.97917 17.9995 3.45 17.9995 4V18C17.9995 18.55 17.8037 19.0208 17.412 19.4125C17.0203 19.8042 16.5495 20 15.9995 20H1.99951ZM1.99951 18H15.9995V8H1.99951V18ZM1.99951 6H15.9995V4H1.99951V6Z" fill="#4589FF"/>
</svg>
