<svg width="21" height="15" viewBox="0 0 21 15" fill="none" xmlns="http://www.w3.org/2000/svg">
<path d="M10.4995 9.00614C10.2649 9.00654 10.0364 8.9317 9.84753 8.79262L0.944424 2.22288C0.828586 2.13733 0.730747 2.02981 0.656491 1.90647C0.582236 1.78313 0.53302 1.64638 0.511652 1.50404C0.468498 1.21655 0.541397 0.923717 0.714313 0.689945C0.88723 0.456173 1.146 0.300615 1.43369 0.257493C1.72139 0.21437 2.01444 0.287216 2.24839 0.460004L10.4995 6.54248L18.7506 0.460004C18.8665 0.374448 18.998 0.312529 19.1378 0.277782C19.2776 0.243035 19.4229 0.236141 19.5653 0.257493C19.7078 0.278844 19.8446 0.328025 19.9681 0.402225C20.0915 0.476425 20.1991 0.574193 20.2847 0.689945C20.3703 0.805697 20.4323 0.937168 20.4671 1.07685C20.5018 1.21653 20.5087 1.36169 20.4874 1.50404C20.466 1.64638 20.4168 1.78313 20.3425 1.90647C20.2683 2.02981 20.1704 2.13733 20.0546 2.22288L11.1515 8.79262C10.9626 8.9317 10.7341 9.00654 10.4995 9.00614Z" fill="white"/>
<path d="M10.4995 14.7547C10.2649 14.7551 10.0364 14.6802 9.84753 14.5412L0.944424 7.97142C0.710479 7.79863 0.554806 7.54005 0.511652 7.25257C0.468498 6.96509 0.541397 6.67225 0.714313 6.43848C0.88723 6.20471 1.146 6.04915 1.43369 6.00603C1.72139 5.96291 2.01444 6.03575 2.24839 6.20854L10.4995 12.291L18.7506 6.20854C18.9846 6.03575 19.2776 5.96291 19.5653 6.00603C19.853 6.04915 20.1118 6.20471 20.2847 6.43848C20.4576 6.67225 20.5305 6.96509 20.4874 7.25257C20.4442 7.54005 20.2885 7.79863 20.0546 7.97142L11.1515 14.5412C10.9626 14.6802 10.7341 14.7551 10.4995 14.7547Z" fill="white"/>
</svg>
