<svg width="20" height="9" viewBox="0 0 20 9" fill="none" xmlns="http://www.w3.org/2000/svg">
<path d="M18.9036 8.22528H1.0954C0.804754 8.22528 0.52601 8.10898 0.320491 7.90197C0.114971 7.69495 -0.000488281 7.41419 -0.000488281 7.12143C-0.000488281 6.82867 0.114971 6.5479 0.320491 6.34089C0.52601 6.13388 0.804754 6.01758 1.0954 6.01758H18.9036C19.1943 6.01758 19.473 6.13388 19.6785 6.34089C19.8841 6.5479 19.9995 6.82867 19.9995 7.12143C19.9995 7.41419 19.8841 7.69495 19.6785 7.90197C19.473 8.10898 19.1943 8.22528 18.9036 8.22528Z" fill="white"/>
<path d="M18.9036 2.98211H1.0954C0.804754 2.98211 0.52601 2.86581 0.320491 2.6588C0.114971 2.45179 -0.000488281 2.17102 -0.000488281 1.87826C-0.000488281 1.5855 0.114971 1.30474 0.320491 1.09772C0.52601 0.890712 0.804754 0.774414 1.0954 0.774414L18.9036 0.774414C19.1943 0.774414 19.473 0.890712 19.6785 1.09772C19.8841 1.30474 19.9995 1.5855 19.9995 1.87826C19.9995 2.17102 19.8841 2.45179 19.6785 2.6588C19.473 2.86581 19.1943 2.98211 18.9036 2.98211Z" fill="white"/>
</svg>
