<svg width="33" height="32" viewBox="0 0 33 32" fill="none" xmlns="http://www.w3.org/2000/svg">
<mask id="mask0_24284_4125" style="mask-type:alpha" maskUnits="userSpaceOnUse" x="0" y="0" width="33" height="32">
<rect x="0.499512" width="32" height="32" fill="#D9D9D9"/>
</mask>
<g mask="url(#mask0_24284_4125)">
<path d="M25.8289 18.6667C25.513 18.6667 25.2494 18.5602 25.0383 18.3473C24.8272 18.1343 24.7217 17.8704 24.7217 17.5556V14.4445H21.6105C21.2957 14.4445 21.0318 14.3376 20.8189 14.1239C20.6059 13.9102 20.4994 13.6454 20.4994 13.3295C20.4994 13.0136 20.6059 12.7501 20.8189 12.5389C21.0318 12.3278 21.2957 12.2223 21.6105 12.2223H24.7217V9.11115C24.7217 8.79635 24.8285 8.53246 25.0422 8.31948C25.2559 8.10653 25.5208 8.00005 25.8367 8.00005C26.1526 8.00005 26.4161 8.10653 26.6272 8.31948C26.8383 8.53246 26.9439 8.79635 26.9439 9.11115V12.2223H30.055C30.3698 12.2223 30.6337 12.3291 30.8467 12.5428C31.0596 12.7566 31.1661 13.0214 31.1661 13.3373C31.1661 13.6532 31.0596 13.9167 30.8467 14.1278C30.6337 14.3389 30.3698 14.4445 30.055 14.4445H26.9439V17.5556C26.9439 17.8704 26.837 18.1343 26.6233 18.3473C26.4096 18.5602 26.1448 18.6667 25.8289 18.6667ZM12.4994 15.9778C11.0328 15.9778 9.81424 15.4926 8.84386 14.5223C7.87351 13.5519 7.38833 12.3334 7.38833 10.8667C7.38833 9.40005 7.87351 8.18154 8.84386 7.21118C9.81424 6.2408 11.0328 5.75562 12.4994 5.75562C13.9661 5.75562 15.1846 6.2408 16.155 7.21118C17.1254 8.18154 17.6105 9.40005 17.6105 10.8667C17.6105 12.3334 17.1254 13.5519 16.155 14.5223C15.1846 15.4926 13.9661 15.9778 12.4994 15.9778ZM2.94386 26.6667C2.62906 26.6667 2.36517 26.5602 2.1522 26.3473C1.93924 26.1343 1.83276 25.8704 1.83276 25.5556V23.3334C1.83276 22.563 2.03091 21.8612 2.4272 21.2279C2.82351 20.5945 3.36611 20.1186 4.055 19.8C5.62537 19.0815 7.07973 18.5649 8.41806 18.25C9.75642 17.9352 11.1157 17.7779 12.4958 17.7779C13.876 17.7779 15.2365 17.9352 16.5772 18.25C17.9179 18.5649 19.3661 19.0815 20.9217 19.8C21.6106 20.1334 22.1568 20.613 22.5605 21.2389C22.9642 21.8649 23.1661 22.563 23.1661 23.3334V25.5556C23.1661 25.8704 23.0596 26.1343 22.8467 26.3473C22.6337 26.5602 22.3698 26.6667 22.055 26.6667H2.94386ZM4.05496 24.4445H20.9439V23.3334C20.9439 23.0149 20.8643 22.7149 20.705 22.4334C20.5457 22.1519 20.3068 21.9408 19.9883 21.8C18.5513 21.0963 17.2624 20.6204 16.1217 20.3723C14.9809 20.1241 13.7735 20 12.4994 20C11.2254 20 10.018 20.1278 8.8772 20.3834C7.73646 20.6389 6.44018 21.1112 4.98833 21.8C4.69942 21.9408 4.47163 22.1519 4.30496 22.4334C4.1383 22.7149 4.05496 23.0149 4.05496 23.3334V24.4445ZM12.4994 13.7556C13.3217 13.7556 14.0087 13.4797 14.5605 12.9278C15.1124 12.376 15.3883 11.6889 15.3883 10.8667C15.3883 10.0445 15.1124 9.35746 14.5605 8.80562C14.0087 8.25375 13.3217 7.97782 12.4994 7.97782C11.6772 7.97782 10.9902 8.25375 10.4383 8.80562C9.88646 9.35746 9.61053 10.0445 9.61053 10.8667C9.61053 11.6889 9.88646 12.376 10.4383 12.9278C10.9902 13.4797 11.6772 13.7556 12.4994 13.7556Z" fill="white"/>
</g>
</svg>
