<svg width="44" height="43" viewBox="0 0 44 43" fill="none" xmlns="http://www.w3.org/2000/svg">
<path d="M22 21.483C19.0667 21.483 16.5555 20.4385 14.4667 18.3497C12.3778 16.2608 11.3333 13.7497 11.3333 10.8163C11.3333 7.88299 12.3778 5.37188 14.4667 3.28299C16.5555 1.1941 19.0667 0.149658 22 0.149658C24.9333 0.149658 27.4444 1.1941 29.5333 3.28299C31.6222 5.37188 32.6667 7.88299 32.6667 10.8163C32.6667 13.7497 31.6222 16.2608 29.5333 18.3497C27.4444 20.4385 24.9333 21.483 22 21.483ZM38 42.8163H5.99999C4.53332 42.8163 3.27777 42.2941 2.23332 41.2497C1.18888 40.2052 0.666656 38.9497 0.666656 37.483V35.3497C0.666656 33.8385 1.05555 32.4497 1.83332 31.183C2.6111 29.9163 3.64443 28.9497 4.93332 28.283C7.68888 26.9052 10.4889 25.8719 13.3333 25.183C16.1778 24.4941 19.0667 24.1497 22 24.1497C24.9333 24.1497 27.8222 24.4941 30.6667 25.183C33.5111 25.8719 36.3111 26.9052 39.0667 28.283C40.3555 28.9497 41.3889 29.9163 42.1667 31.183C42.9444 32.4497 43.3333 33.8385 43.3333 35.3497V37.483C43.3333 38.9497 42.8111 40.2052 41.7667 41.2497C40.7222 42.2941 39.4667 42.8163 38 42.8163ZM5.99999 37.483H38V35.3497C38 34.8608 37.8778 34.4163 37.6333 34.0163C37.3889 33.6163 37.0667 33.3052 36.6667 33.083C34.2667 31.883 31.8444 30.983 29.4 30.383C26.9555 29.783 24.4889 29.483 22 29.483C19.5111 29.483 17.0444 29.783 14.6 30.383C12.1555 30.983 9.73332 31.883 7.33332 33.083C6.93332 33.3052 6.6111 33.6163 6.36666 34.0163C6.12221 34.4163 5.99999 34.8608 5.99999 35.3497V37.483ZM22 16.1497C23.4667 16.1497 24.7222 15.6274 25.7667 14.583C26.8111 13.5385 27.3333 12.283 27.3333 10.8163C27.3333 9.34966 26.8111 8.0941 25.7667 7.04966C24.7222 6.00521 23.4667 5.48299 22 5.48299C20.5333 5.48299 19.2778 6.00521 18.2333 7.04966C17.1889 8.0941 16.6667 9.34966 16.6667 10.8163C16.6667 12.283 17.1889 13.5385 18.2333 14.583C19.2778 15.6274 20.5333 16.1497 22 16.1497Z" fill="white"/>
</svg>
