<svg width="24" height="24" viewBox="0 0 24 24" fill="none" xmlns="http://www.w3.org/2000/svg">
<mask id="mask0_19448_11108" style="mask-type:alpha" maskUnits="userSpaceOnUse" x="-1" y="0" width="25" height="24">
<rect x="-0.000488281" width="24" height="24" fill="#D9D9D9"/>
</mask>
<g mask="url(#mask0_19448_11108)">
<path d="M9.54954 15.15L18.0245 6.675C18.2245 6.475 18.462 6.375 18.737 6.375C19.012 6.375 19.2495 6.475 19.4495 6.675C19.6495 6.875 19.7495 7.1125 19.7495 7.3875C19.7495 7.6625 19.6495 7.9 19.4495 8.1L10.2495 17.3C10.0495 17.5 9.8162 17.6 9.54954 17.6C9.28287 17.6 9.04954 17.5 8.84954 17.3L4.54954 13C4.34954 12.8 4.2537 12.5625 4.26204 12.2875C4.27037 12.0125 4.37454 11.775 4.57454 11.575C4.77454 11.375 5.01204 11.275 5.28704 11.275C5.56204 11.275 5.79954 11.375 5.99954 11.575L9.54954 15.15Z" fill="#4589FF"/>
</g>
</svg>
