<svg width="20" height="15" viewBox="0 0 20 15" fill="none" xmlns="http://www.w3.org/2000/svg">
<path d="M18.9038 14.7547C18.6691 14.7551 18.4406 14.6803 18.2517 14.5412L9.99966 8.458L1.7476 14.5412C1.63175 14.6267 1.50017 14.6887 1.36037 14.7234C1.22057 14.7582 1.07528 14.7651 0.932817 14.7437C0.790349 14.7223 0.653485 14.6732 0.53004 14.599C0.406595 14.5247 0.298986 14.427 0.213357 14.3112C0.127727 14.1954 0.0657554 14.0639 0.0309788 13.9243C-0.00379784 13.7846 -0.010698 13.6394 0.0106721 13.497C0.0538312 13.2095 0.209522 12.9509 0.443493 12.7781L9.3476 6.20761C9.5363 6.06802 9.76488 5.99268 9.99966 5.99268C10.2344 5.99268 10.463 6.06802 10.6517 6.20761L19.5558 12.7781C19.7417 12.915 19.8796 13.1071 19.9498 13.327C20.0199 13.5469 20.0188 13.7833 19.9465 14.0025C19.8742 14.2216 19.7344 14.4124 19.5471 14.5475C19.3599 14.6826 19.1347 14.7551 18.9038 14.7547Z" fill="white"/>
<path d="M18.9038 9.00568C18.6691 9.00609 18.4406 8.93124 18.2517 8.79214L9.99966 2.70898L1.74761 8.79214C1.51364 8.96495 1.22055 9.0378 0.932821 8.99468C0.645094 8.95155 0.386297 8.79597 0.213361 8.56218C0.0404254 8.32838 -0.0324824 8.03551 0.0106767 7.74799C0.0538357 7.46048 0.209526 7.20187 0.443498 7.02906L9.34761 0.458588C9.53631 0.318997 9.76488 0.243652 9.99966 0.243652C10.2344 0.243652 10.463 0.318997 10.6517 0.458588L19.5558 7.02906C19.7417 7.16598 19.8796 7.35809 19.9498 7.57797C20.0199 7.79785 20.0188 8.03426 19.9465 8.25344C19.8742 8.47262 19.7344 8.66338 19.5472 8.79847C19.3599 8.93356 19.1347 9.00608 18.9038 9.00568Z" fill="white"/>
</svg>
